<svg xmlns="http://www.w3.org/2000/svg" viewBox="0 0 555 206.98"><g id="Layer_2" data-name="Layer 2"><g id="Layer_1-2" data-name="Layer 1"><path fill="#575757" d="M117.73,203.44H60.28q-30.85,0-45.56-16T0,146V79.82Q0,66.88,3.77,57.34a40.41,40.41,0,0,1,11.06-15.9L45.45,15.78q7.29-6.12,18.6-9.19a102.46,102.46,0,0,1,26.6-3.06h57.46c3.77,0,6.51.87,8.24,2.59s2.59,4.48,2.59,8.24v28.5a14.58,14.58,0,0,1-.82,5.18,8.84,8.84,0,0,1-2.48,3.53L125,77a7.84,7.84,0,0,1-2.94,1.65,13.07,13.07,0,0,1-4.36.7h-29v39.8c0,3.29,1,5.61,3.06,6.94s5,2,9,2h47.33c3.77,0,6.51.87,8.24,2.59s2.59,4.48,2.59,8.25v28a14.58,14.58,0,0,1-.82,5.18,8.84,8.84,0,0,1-2.48,3.53L125,201.09a7.84,7.84,0,0,1-2.94,1.65A13.07,13.07,0,0,1,117.73,203.44Zm30.38-28c3,0,5.14-.66,6.47-2s2-3.49,2-6.47v-28q0-4.47-2-6.48t-6.47-2H100.78q-7.31,0-10.83-2.71t-3.53-8.59v-56q0-5.89,3.53-8.83t10.83-3h47.33c3,0,5.14-.66,6.47-2s2-3.49,2-6.47V14.36q0-4.47-2-6.47t-6.47-2H90.65Q61.22,5.89,47,17.78T32.73,54.16v73.23q0,24.49,14.25,36.26t43.67,11.77Zm-13-23.54v2.35H95.84q-22.84,0-30.26-7.06t-7.42-23.31V57.92q0-16.71,7.54-23.78t30.14-7.06h39.32v2.35H95.84q-20.73,0-28,6.48t-7.3,22v65.94q0,15.3,7.07,21.66t28.26,6.36Z"/><path fill="#575757" d="M259.25,175.66l-30.61,25.43a7.84,7.84,0,0,1-2.94,1.65,13.07,13.07,0,0,1-4.36.7h-36.5c-3.77,0-6.51-.86-8.24-2.59s-2.59-4.47-2.59-8.24V40a14.32,14.32,0,0,1,.82-5.18,8.75,8.75,0,0,1,2.48-3.53L207.68,5.65a9.43,9.43,0,0,1,3.18-1.53,15.48,15.48,0,0,1,4.36-.59h36.49c3.77,0,6.52.87,8.25,2.59s2.59,4.48,2.59,8.24V63.11h4.23V40a14.31,14.31,0,0,1,.83-5.18,8.73,8.73,0,0,1,2.47-3.53L300.46,5.65a9.24,9.24,0,0,1,3.18-1.53A15.4,15.4,0,0,1,308,3.53h36.5c3.77,0,6.51.87,8.24,2.59s2.59,4.48,2.59,8.24V167a14.58,14.58,0,0,1-.82,5.18,8.84,8.84,0,0,1-2.48,3.53l-30.61,25.43a7.84,7.84,0,0,1-2.94,1.65,13.07,13.07,0,0,1-4.36.7H277.62q-5.65,0-8.25-2.59c-1.72-1.72-2.59-4.47-2.59-8.24V142.69h-4.23V167a14.35,14.35,0,0,1-.83,5.18A8.73,8.73,0,0,1,259.25,175.66Zm-7.54-.24c3,0,5.14-.66,6.48-2s2-3.49,2-6.47V114.67h39.32V167q0,4.47,2,6.47c1.33,1.34,3.49,2,6.47,2h36.5c3,0,5.14-.66,6.47-2s2-3.49,2-6.47V14.36q0-4.47-2-6.47t-6.47-2H308q-4.47,0-6.47,2t-2,6.47v51.1H260.19V14.36q0-4.47-2-6.47t-6.48-2H215.22q-4.49,0-6.48,2t-2,6.47V167q0,4.47,2,6.47c1.33,1.34,3.49,2,6.48,2Zm-19.54-21.19V27.08h2.36v62.4H325V27.08h2.35V154.23H325V91.83H234.53v62.4Z"/><path fill="#575757" d="M510.49,192.14q-8.24,7.06-23.07,11T449.27,207q-23.08,0-37.79-4.83T388.4,189.32A42.45,42.45,0,0,1,376.86,171a73,73,0,0,1-3.17-21.43V76.29a63.76,63.76,0,0,1,3.06-20.13,34,34,0,0,1,11.06-15.89l30.61-25.44q8.25-7,23-10.94T479.65,0q23.07,0,37.79,3.77t23.07,10.48a34,34,0,0,1,11.42,16A64.85,64.85,0,0,1,555,50.63v80.29a63,63,0,0,1-3.07,20,34.22,34.22,0,0,1-11.06,15.77Zm42.15-61.22V50.63A57.77,57.77,0,0,0,549.46,31a33.52,33.52,0,0,0-11.3-15.18Q530,9.42,515.79,5.89T479.65,2.35q-21.9,0-36.27,3.54T420.9,15.78A33.55,33.55,0,0,0,409.59,31a58,58,0,0,0-3.17,19.67v80.29a58,58,0,0,0,3.17,19.66,32.85,32.85,0,0,0,11.31,15.07q8.12,6.24,22.48,9.77T479.65,179q21.89,0,36.14-3.54t22.37-9.77a32.83,32.83,0,0,0,11.3-15.07A57.71,57.71,0,0,0,552.64,130.92ZM527,125.5q0,14.13-10.12,23t-37.67,8.83q-27.56,0-37.44-8.83t-9.89-23V56q0-14.13,9.89-23t37.44-8.83q27.54,0,37.67,8.83T527,56Zm-92.77,0q0,13.2,9.42,21.31t35.56,8.13q26.13,0,35.79-8.13t9.65-21.31V56q0-13.18-9.65-21.31t-35.79-8.12q-26.15,0-35.56,8.12T434.2,56Zm25.67-3.06V59.1a9.92,9.92,0,0,1,3.53-7.65q3.53-3.18,16.25-3.18t16.24,3.18a9.92,9.92,0,0,1,3.53,7.65v63.34a10.15,10.15,0,0,1-3.53,7.89q-3.52,3.18-16.24,3.18t-16.25-3.18A10.15,10.15,0,0,1,459.87,122.44Zm2.35,0a8.58,8.58,0,0,0,.94,4.12,7.19,7.19,0,0,0,3.53,2.95V84.77a8.61,8.61,0,0,0-.94-4.12,6.13,6.13,0,0,0-3.53-2.71Z"/></g></g></svg>