<svg xmlns="http://www.w3.org/2000/svg" viewBox="0 0 266.71 291.37"><defs><style>.cls-1{fill:none;stroke:#fff;stroke-miterlimit:10;stroke-width:2px;}.cls-2{fill:#fff;}</style></defs><g id="Layer_2" data-name="Layer 2"><g id="Layer_1-2" data-name="Layer 1"><path class="cls-1" d="M5.67,1H37.79q16.44,0,24,7.64t7.55,23.51v5.42q0,10.44-3.39,17a19.83,19.83,0,0,1-10.35,9.48v.39q15.87,5.42,15.87,28.25v11.6q0,15.68-8.23,23.9t-24.08,8.22H5.67ZM35.28,56.14q6.38,0,9.57-3.29t3.19-11V34.28q0-7.35-2.61-10.64c-1.74-2.2-4.48-3.29-8.22-3.29H27V56.14Zm3.87,60.94c3.73,0,6.51-1,8.31-3s2.71-5.44,2.71-10.35V91.93q0-9.29-3.19-12.86T36.44,75.49H27v41.59Z"/><path class="cls-1" d="M83.84,1h58V20.35H105.12V56.14h29.21V75.49H105.12v41.59h36.76v19.35h-58Z"/><path class="cls-1" d="M154.07,1h26.69l20.71,81.06h.38V1h19V136.43H199L173.41,37.57H173v98.86h-19Z"/><path class="cls-1" d="M8.93,273.56Q1,264.76,1,248.31v-7.73H21.12v9.28q0,13.15,11,13.16c3.61,0,6.35-1.07,8.22-3.19s2.81-5.58,2.81-10.35a28.69,28.69,0,0,0-3.87-15Q35.44,228,25,218.91q-13.15-11.61-18.38-21a42.79,42.79,0,0,1-5.22-21.18q0-16.06,8.12-24.86t23.61-8.81q15.27,0,23.12,8.81t7.83,25.25v5.61H44v-7q0-7-2.71-10.16c-1.81-2.12-4.45-3.19-7.93-3.19q-10.65,0-10.64,13a25.59,25.59,0,0,0,4,13.73q4,6.39,14.42,15.48Q54.4,216.2,59.43,225.68t5,22.25q0,16.63-8.22,25.54t-23.9,8.9Q16.86,282.37,8.93,273.56Z"/><path class="cls-1" d="M83.42,273.47q-8.33-8.91-8.32-25.16V177.12q0-16.26,8.32-25.16t24-8.9q15.68,0,24,8.9t8.32,25.16v71.19q0,16.26-8.32,25.16t-24,8.9Q91.73,282.37,83.42,273.47Zm35-23.8V175.76q0-13.35-11-13.35t-11,13.35v73.91q0,13.35,11,13.35T118.44,249.67Z"/><path class="cls-1" d="M154,145h26.7l20.7,81.06h.39V145h19V280.43H198.92l-25.54-98.86H173v98.86H154Z"/><path class="cls-2" d="M18.67,10H50.79q16.44,0,24,7.64t7.55,23.51v5.42q0,10.44-3.39,17a19.83,19.83,0,0,1-10.35,9.48v.39q15.87,5.42,15.87,28.25v11.6q0,15.68-8.23,23.9t-24.08,8.22H18.67ZM48.28,65.14q6.38,0,9.57-3.29t3.19-11V43.28q0-7.35-2.61-10.64c-1.74-2.2-4.48-3.29-8.22-3.29H40V65.14Zm3.87,60.94c3.73,0,6.51-1,8.31-3s2.71-5.44,2.71-10.35v-11.8q0-9.29-3.19-12.86T49.44,84.49H40v41.59Z"/><path class="cls-2" d="M96.84,10h58V29.35H118.12V65.14h29.21V84.49H118.12v41.59h36.76v19.35h-58Z"/><path class="cls-2" d="M167.07,10h26.69l20.71,81.06h.38V10h19V145.43H212L186.41,46.57H186v98.86h-19Z"/><path class="cls-2" d="M21.93,282.56Q14,273.76,14,257.31v-7.73H34.12v9.28q0,13.15,11,13.16c3.61,0,6.35-1.07,8.22-3.19s2.81-5.58,2.81-10.35a28.69,28.69,0,0,0-3.87-15Q48.44,237,38,227.91q-13.16-11.61-18.38-21a42.79,42.79,0,0,1-5.22-21.18q0-16.06,8.12-24.86t23.61-8.81q15.27,0,23.12,8.81t7.83,25.25v5.61H57v-7q0-7-2.71-10.16c-1.81-2.12-4.45-3.19-7.93-3.19q-10.65,0-10.64,13a25.59,25.59,0,0,0,4,13.73q4,6.39,14.42,15.48Q67.4,225.2,72.43,234.68t5,22.25q0,16.63-8.22,25.54t-23.9,8.9Q29.86,291.37,21.93,282.56Z"/><path class="cls-2" d="M96.42,282.47q-8.33-8.91-8.32-25.16V186.12q0-16.26,8.32-25.16t24-8.9q15.68,0,24,8.9t8.32,25.16v71.19q0,16.26-8.32,25.16t-24,8.9Q104.73,291.37,96.42,282.47Zm35-23.8V184.76q0-13.35-11-13.35t-11,13.35v73.91q0,13.35,11,13.35T131.44,258.67Z"/><path class="cls-2" d="M167,154h26.7l20.7,81.06h.39V154h19V289.43H211.92l-25.54-98.86H186v98.86H167Z"/><rect class="cls-2" x="240.71" y="262.96" width="26" height="26"/></g></g></svg>