<svg xmlns="http://www.w3.org/2000/svg" viewBox="0 0 412.04 207.12"><defs><style>.cls-1{fill:#575757;}</style></defs><g id="Layer_2" data-name="Layer 2"><g id="Layer_1-2" data-name="Layer 1"><path class="cls-1" d="M86.85,178.33,55.13,204.68a8.13,8.13,0,0,1-3,1.71,13.48,13.48,0,0,1-4.52.73H11.22q-5.85,0-8.54-2.68T0,195.9V37.81a14.81,14.81,0,0,1,.85-5.36,9.06,9.06,0,0,1,2.56-3.66L34.89,2.2A9.61,9.61,0,0,1,38.18.61,16.12,16.12,0,0,1,42.69,0H82a14,14,0,0,1,7.68,2,18.82,18.82,0,0,1,5.74,6.59L112,39l2.19-3.9c.65-1.14,1.34-2.23,2.08-3.29a12.2,12.2,0,0,1,2.31-2.57L150,2.93a13.67,13.67,0,0,1,9-2.93h39.52c3.91,0,6.75.9,8.54,2.68s2.68,4.64,2.68,8.54V169.31a14.81,14.81,0,0,1-.85,5.36,9.06,9.06,0,0,1-2.56,3.66l-31.72,26.35a8.22,8.22,0,0,1-3,1.71,13.48,13.48,0,0,1-4.52.73H129.54q-6.09,0-8.66-2.68t-2.56-8.54V131.49l-14.39,12A13.11,13.11,0,0,1,99.41,146a18.86,18.86,0,0,1-6,.85H90.26v22.45a14.81,14.81,0,0,1-.85,5.36A9.06,9.06,0,0,1,86.85,178.33ZM79,178.09q4.63,0,6.71-2.07c1.38-1.38,2.08-3.62,2.08-6.71V83.43L102.22,110a13,13,0,0,0,12.93,7.81h9.76A13.07,13.07,0,0,0,137.84,110l14.39-26.59v85.88q0,4.63,2.07,6.71t6.71,2.07h37.57q4.63,0,6.71-2.07t2.07-6.71V11.22c0-3.09-.69-5.32-2.07-6.71s-3.62-2.07-6.71-2.07H159.06a11.38,11.38,0,0,0-6.46,1.71,16,16,0,0,0-4.76,5.61L126.13,49.52a19,19,0,0,1-2.08,3.17,2.89,2.89,0,0,1-2.31,1h-2.2a2.9,2.9,0,0,1-2.32-1,18.44,18.44,0,0,1-2.07-3.17l-22-39.76a16,16,0,0,0-4.76-5.61A11.38,11.38,0,0,0,82,2.44H42.69q-4.63,0-6.71,2.07c-1.38,1.39-2.07,3.62-2.07,6.71V169.31q0,4.63,2.07,6.71t6.71,2.07Zm40.74-93.92c2.93,0,5-.65,6.35-2a60.48,60.48,0,0,0,6.1-8.29L162,28.54a8,8,0,0,1,3.29-3.29,8.83,8.83,0,0,1,3.78-.85h4.15c2.28,0,3.94.61,5,1.83s1.59,3.13,1.59,5.73V156.13h-2.44V32a7.36,7.36,0,0,0-.86-3.54,3.39,3.39,0,0,0-3.29-1.59h-3.66a8,8,0,0,0-2.93.49,6.92,6.92,0,0,0-2.68,2.93L134.18,75.14a76.36,76.36,0,0,1-6.71,9q-2.32,2.43-7.69,2.43t-7.68-2.43a75.24,75.24,0,0,1-6.71-9L75.63,30.25a6.58,6.58,0,0,0-2.81-2.93,9,9,0,0,0-3-.49H66.11c-1.62,0-2.68.53-3.17,1.59A8.33,8.33,0,0,0,62.21,32V156.13H59.77V32q0-3.9,1.59-5.73a5.94,5.94,0,0,1,4.75-1.83h4.15a9.64,9.64,0,0,1,3.9.85,7.81,7.81,0,0,1,3.42,3.29l29.76,45.38a60.48,60.48,0,0,0,6.1,8.29C114.74,83.52,116.86,84.17,119.78,84.17Z"/><path class="cls-1" d="M323,207.12H283.48q-6.11,0-8.66-2.68t-2.57-8.54V165.4l-36.83-49.28q-5.86-7.8-7.81-13.66t-2-17.81V37.81a14.81,14.81,0,0,1,.85-5.36,9,9,0,0,1,2.56-3.66L260.55,2.2A9.52,9.52,0,0,1,263.84.61,16.12,16.12,0,0,1,268.35,0h37.57c3.91,0,6.75.9,8.54,2.68s2.68,4.64,2.68,8.54v40a38,38,0,0,0,.25,4.39,13.86,13.86,0,0,0,1.46,4.64l2.93,4.14V37.81a14.81,14.81,0,0,1,.85-5.36,9,9,0,0,1,2.56-3.66L356.66,2.2A9.76,9.76,0,0,1,360,.61,16.12,16.12,0,0,1,364.47,0h36.35c3.9,0,6.75.9,8.54,2.68S412,7.32,412,11.22V58.06q0,12-2,17.81t-7.8,13.66l-36.6,49.53v30.25a14.81,14.81,0,0,1-.85,5.36,9.06,9.06,0,0,1-2.56,3.66l-31.72,26.35a8.19,8.19,0,0,1-3.05,1.71A13.42,13.42,0,0,1,323,207.12Zm31.47-29c3.09,0,5.32-.69,6.71-2.07s2.07-3.62,2.07-6.71v-31l37.08-50.25a55,55,0,0,0,7.32-13.18q2-5.6,2-16.83V11.22c0-3.09-.69-5.32-2.07-6.71s-3.62-2.07-6.71-2.07H364.47q-4.64,0-6.71,2.07c-1.38,1.39-2.07,3.62-2.07,6.71v40c0,1.63-.08,3.34-.25,5.12a10.46,10.46,0,0,1-1.95,5.13L342.27,79a9.48,9.48,0,0,1-2.56,3.17,5.39,5.39,0,0,1-3.29,1H334a5.4,5.4,0,0,1-3.3-1A9.48,9.48,0,0,1,328.12,79L316.9,61.48A10.46,10.46,0,0,1,315,56.35c-.17-1.78-.25-3.49-.25-5.12v-40c0-3.09-.69-5.32-2.07-6.71S309,2.44,305.92,2.44H268.35q-4.64,0-6.71,2.07c-1.38,1.39-2.07,3.62-2.07,6.71V58.06q0,11.22,1.83,16.83t7.44,13.18l37.33,50v31.23q0,4.63,2.07,6.71t6.71,2.07Zm-16.83-63.67h-1.71v41.71h-2.44V114.42h-2.44a19.16,19.16,0,0,1-9.64-2.44,27.16,27.16,0,0,1-8.17-7.81L289.58,71.24a17,17,0,0,1-3.18-8.54q-.48-4.87-.48-10.25V24.4h2.44V52.45a91.31,91.31,0,0,0,.48,9.64,18,18,0,0,0,2.93,8.17l23.67,32.93a18,18,0,0,0,7.31,6.83,19.24,19.24,0,0,0,8.3,2h6.59a17.13,17.13,0,0,0,8.41-2.08,25.23,25.23,0,0,0,7.44-6.71l24.4-32.93a15.36,15.36,0,0,0,2.93-7.93,98.28,98.28,0,0,0,.49-9.88V24.4h2.43V52.45q0,5.37-.36,10.12a16.3,16.3,0,0,1-3.29,8.67l-24.4,32.93a27.16,27.16,0,0,1-8.17,7.81A19.64,19.64,0,0,1,337.64,114.42Z"/></g></g></svg>