<svg xmlns="http://www.w3.org/2000/svg" viewBox="0 0 1098.29 202.75"><defs><style>.cls-1{fill:#ff3e3e;}</style></defs><g id="Layer_2" data-name="Layer 2"><g id="Layer_1-2" data-name="Layer 1"><path class="cls-1" d="M11,202.75c-3.83,0-6.61-.88-8.36-2.63S0,195.59,0,191.77V163.83a14.5,14.5,0,0,1,.84-5.26A8.8,8.8,0,0,1,3.34,155l23.88-20.06q-12.66-3.83-19.94-13T0,95.53V70.45A48.1,48.1,0,0,1,3.58,51.34,38.07,38.07,0,0,1,13.85,37.25l31.05-26A47.65,47.65,0,0,1,60.9,3,73.09,73.09,0,0,1,82.63,0H149.5c3.82,0,6.6.88,8.36,2.63s2.62,4.53,2.62,8.36V39.4a14.77,14.77,0,0,1-.83,5.26,8.91,8.91,0,0,1-2.51,3.58L135.65,66.15q15,3.34,24.24,12.54t9.19,28.54V132.3a48.07,48.07,0,0,1-3.58,19.11A36.88,36.88,0,0,1,155,165.5l-30.81,25.79a47.87,47.87,0,0,1-16.24,8.48,71.93,71.93,0,0,1-21.49,3Zm106.27-28.42q22.92,0,36.18-10.86t13.25-31.17V107.23q0-20.07-10.27-28.66t-27-11L93.85,62.81a6.35,6.35,0,0,1-4.77-2.39,8.25,8.25,0,0,1-1.67-5.25A7.81,7.81,0,0,1,89.08,50a5.83,5.83,0,0,1,4.77-2H149.5c3,0,5.21-.67,6.56-2s2-3.54,2-6.57V11c0-3-.67-5.22-2-6.57s-3.54-2-6.56-2H82.63q-23.16,0-36.3,10.86T33.2,44.42V69.49q0,20.07,10.14,28.66t26.87,11l35.82,5a6.34,6.34,0,0,1,4.66,2.15q1.55,1.92,1.55,6a7.86,7.86,0,0,1-1.55,4.9,5.52,5.52,0,0,1-4.66,2H41.79q-4.53,0-6.57,2t-2,6.56v28q0,4.53,2,6.56c1.36,1.36,3.55,2,6.57,2ZM136.6,23.88v2.39h-53q-10,0-16,5.49a18,18,0,0,0-6,13.85V65.2q0,8.35,3.35,11.7a16,16,0,0,0,8.83,4.3l50.39,10.27A22.06,22.06,0,0,1,136,97.67q4.67,4.78,4.66,17.2v13.85A22.84,22.84,0,0,1,133.5,146q-7.17,6.81-19.35,6.81H54.69v-2.39h59.46q11,0,17.56-6.09a20.39,20.39,0,0,0,6.56-15.64V114.87q0-11.22-3.94-15.4a19.88,19.88,0,0,0-10.62-5.62L73.32,83.58a19.8,19.8,0,0,1-10.15-4.89Q59.22,75,59.23,65.2V45.61A20.2,20.2,0,0,1,65.91,30q6.69-6.09,17.67-6.09Z"/><path class="cls-1" d="M269.86,174.57l-31.05,25.79a7.89,7.89,0,0,1-3,1.68,13.43,13.43,0,0,1-4.42.71h-37q-5.73,0-8.35-2.63c-1.76-1.75-2.63-4.53-2.63-8.35V37a14.77,14.77,0,0,1,.83-5.26,8.91,8.91,0,0,1,2.51-3.58l30.81-26A9.29,9.29,0,0,1,220.78.6,15.54,15.54,0,0,1,225.2,0h37c3.82,0,6.6.88,8.36,2.63S273.2,7.16,273.2,11V32.72c.48-.64,1-1.32,1.43-2a7,7,0,0,1,1.68-1.79l30.8-26A10.83,10.83,0,0,1,311.29.72,20.29,20.29,0,0,1,316.9,0h36.78c4,0,6.61,1,7.88,3s1.12,4.74-.47,8.24L338.16,63.76q12.9,1.68,20.54,11t7.64,23.64v67.35a14.45,14.45,0,0,1-.84,5.25,8.89,8.89,0,0,1-2.5,3.58L332,200.36a8,8,0,0,1-3,1.68,13.43,13.43,0,0,1-4.42.71H287.77q-5.73,0-8.36-2.63t-2.63-8.35V145.2a6.84,6.84,0,0,0-.95-3.82,3.66,3.66,0,0,0-2.63-1.67v26a14.68,14.68,0,0,1-.83,5.25A8.91,8.91,0,0,1,269.86,174.57Zm-7.64-.24c3,0,5.21-.67,6.56-2s2-3.54,2-6.56V111.05h31.53c2.54,0,4.45.71,5.73,2.15a8.68,8.68,0,0,1,1.91,6v46.57c0,3,.67,5.21,2,6.56s3.54,2,6.57,2h36.77c3,0,5.22-.67,6.57-2s2-3.54,2-6.56V98.39q0-14.33-8-23t-21.37-9.44l24.36-55.64q1.67-3.82.23-5.85t-5.49-2H316.9a13.72,13.72,0,0,0-7.4,1.79A12,12,0,0,0,305,10.27L280.37,65.91h-9.56V11q0-4.54-2-6.57t-6.56-2h-37q-4.55,0-6.57,2t-2,6.57V165.74q0,4.53,2,6.56c1.35,1.36,3.54,2,6.57,2ZM245,152.84h-2.39v-129H245V87.41h51.82l27.47-63.53h2.63L299.47,87.41h9.79q14.57,0,21.73,5.49t7.17,17.91v42h-2.39v-42q0-11.46-6.69-16.24t-19.82-4.78H245Z"/><path class="cls-1" d="M494.34,202.75H392.61q-5.73,0-8.36-2.63t-2.63-8.35V163.35a14.54,14.54,0,0,1,.84-5.26,8.79,8.79,0,0,1,2.51-3.58l28.89-24.36V76.9H392.61q-5.73,0-8.36-2.63t-2.63-8.36V37a14.54,14.54,0,0,1,.84-5.26A8.72,8.72,0,0,1,385,28.18l30.8-26A9.35,9.35,0,0,1,419,.6a15.47,15.47,0,0,1,4.41-.6H525.15c3.82,0,6.6.88,8.36,2.63s2.62,4.53,2.62,8.36V39.88a14.77,14.77,0,0,1-.83,5.26,9,9,0,0,1-2.51,3.58L504.37,72.6v53.73h20.78c3.82,0,6.6.88,8.36,2.63s2.62,4.54,2.62,8.36v28.42a14.68,14.68,0,0,1-.83,5.25,8.91,8.91,0,0,1-2.51,3.58l-31,25.79a7.89,7.89,0,0,1-3,1.68A13.39,13.39,0,0,1,494.34,202.75Zm-70.93-28.42H525.15c3,0,5.21-.67,6.57-2s2-3.54,2-6.56V137.32c0-3-.68-5.22-2-6.57s-3.55-2-6.57-2H502V48.48h23.17q4.53,0,6.57-2t2-6.57V11q0-4.54-2-6.57t-6.57-2H423.41q-4.53,0-6.56,2c-1.36,1.35-2,3.54-2,6.57V39.88c0,3,.67,5.22,2,6.57s3.54,2,6.56,2h23.65v80.24H423.41q-4.53,0-6.56,2c-1.36,1.35-2,3.55-2,6.57v28.42c0,3,.67,5.21,2,6.56S420.39,174.33,423.41,174.33Zm88.84-21.49H436.31v-2.39h37V26.27h-37V23.88h75.94v2.39H475.71V150.45h36.54Z"/><path class="cls-1" d="M686.34,202.75H564.79q-5.73,0-8.36-2.63t-2.63-8.35V37a14.54,14.54,0,0,1,.84-5.26,8.72,8.72,0,0,1,2.51-3.58l30.8-26A9.35,9.35,0,0,1,591.18.6a15.47,15.47,0,0,1,4.41-.6h37q5.73,0,8.36,2.63c1.75,1.75,2.63,4.53,2.63,8.36v97.19l.47-.48,30.81-26a9.57,9.57,0,0,1,3.22-1.55,16,16,0,0,1,4.42-.6h34.63c3.82,0,6.6.88,8.36,2.63s2.63,4.54,2.63,8.36v75.23a14.45,14.45,0,0,1-.84,5.25,8.91,8.91,0,0,1-2.51,3.58l-31,25.79a8,8,0,0,1-3,1.68A13.39,13.39,0,0,1,686.34,202.75Zm30.81-28.42c3,0,5.21-.67,6.57-2s2-3.54,2-6.56V90.51q0-4.53-2-6.57t-6.57-2H682.52q-4.53,0-6.56,2c-1.36,1.36-2,3.55-2,6.57V129.2H641.21V11q0-4.54-2-6.57t-6.57-2h-37q-4.53,0-6.56,2C587.67,5.77,587,8,587,11V165.74c0,3,.67,5.21,2,6.56s3.54,2,6.56,2ZM613,152.84v-129h2.39V150.45h83.1v-47h2.39v49.43Z"/><path class="cls-1" d="M876.2,202.75H754.64q-5.73,0-8.35-2.63c-1.76-1.75-2.63-4.53-2.63-8.35V37a14.55,14.55,0,0,1,.83-5.26A8.91,8.91,0,0,1,747,28.18l30.81-26A9.29,9.29,0,0,1,781,.6a15.54,15.54,0,0,1,4.42-.6h37q5.73,0,8.35,2.63c1.75,1.75,2.63,4.53,2.63,8.36v97.19l.48-.48,30.81-26A9.47,9.47,0,0,1,868,80.12a15.9,15.9,0,0,1,4.42-.6H907q5.73,0,8.35,2.63c1.75,1.76,2.63,4.54,2.63,8.36v75.23a14.68,14.68,0,0,1-.83,5.25,8.91,8.91,0,0,1-2.51,3.58l-31,25.79a8,8,0,0,1-3,1.68A13.43,13.43,0,0,1,876.2,202.75ZM907,174.33c3,0,5.21-.67,6.56-2s2-3.54,2-6.56V90.51q0-4.53-2-6.57t-6.56-2H872.38q-4.54,0-6.57,2t-2,6.57V129.2H831.06V11q0-4.54-2-6.57t-6.56-2h-37q-4.55,0-6.57,2t-2,6.57V165.74q0,4.53,2,6.56c1.35,1.36,3.54,2,6.57,2ZM802.88,152.84v-129h2.39V150.45h83.11v-47h2.39v49.43Z"/><path class="cls-1" d="M940.2,202.75q-5.73,0-8.36-2.63t-2.63-8.35V163.83a14.5,14.5,0,0,1,.84-5.26,8.82,8.82,0,0,1,2.51-3.58l23.88-20.06q-12.66-3.83-19.94-13t-7.29-26.38V70.45a48.1,48.1,0,0,1,3.59-19.11,38.07,38.07,0,0,1,10.27-14.09l31-26a47.65,47.65,0,0,1,16-8.24,73.14,73.14,0,0,1,21.73-3h66.87q5.73,0,8.36,2.63c1.75,1.75,2.63,4.53,2.63,8.36V39.4a14.54,14.54,0,0,1-.84,5.26,8.82,8.82,0,0,1-2.51,3.58l-21.49,17.91q15,3.34,24.24,12.54t9.19,28.54V132.3a48.07,48.07,0,0,1-3.58,19.11,36.88,36.88,0,0,1-10.51,14.09l-30.8,25.79a48,48,0,0,1-16.24,8.48,72,72,0,0,1-21.49,3Zm106.27-28.42q22.93,0,36.18-10.86t13.26-31.17V107.23q0-20.07-10.27-28.66t-27-11l-35.58-4.77a6.37,6.37,0,0,1-4.78-2.39,8.31,8.31,0,0,1-1.67-5.25,7.86,7.86,0,0,1,1.67-5.14,5.85,5.85,0,0,1,4.78-2h55.64c3,0,5.21-.67,6.57-2s2-3.54,2-6.57V11q0-4.54-2-6.57t-6.57-2h-66.87q-23.16,0-36.29,10.86T962.41,44.42V69.49q0,20.07,10.15,28.66t26.87,11l35.82,5a6.3,6.3,0,0,1,4.65,2.15q1.56,1.92,1.56,6a7.8,7.8,0,0,1-1.56,4.9,5.48,5.48,0,0,1-4.65,2H971q-4.54,0-6.57,2t-2,6.56v28q0,4.53,2,6.56c1.35,1.36,3.54,2,6.57,2Zm19.35-150.45v2.39h-53q-10,0-16,5.49a18,18,0,0,0-6,13.85V65.2q0,8.35,3.34,11.7a16,16,0,0,0,8.84,4.3l50.39,10.27a22.13,22.13,0,0,1,11.82,6.2q4.65,4.78,4.66,17.2v13.85a22.81,22.81,0,0,1-7.17,17.31q-7.15,6.81-19.34,6.81H983.9v-2.39h59.47q11,0,17.55-6.09a20.36,20.36,0,0,0,6.57-15.64V114.87q0-11.22-3.94-15.4a19.91,19.91,0,0,0-10.63-5.62l-50.39-10.27a19.88,19.88,0,0,1-10.15-4.89q-3.95-3.7-3.94-13.49V45.61A20.21,20.21,0,0,1,995.13,30q6.68-6.09,17.67-6.09Z"/></g></g></svg>