<svg xmlns="http://www.w3.org/2000/svg" viewBox="0 0 1010.7 213.77"><defs><style>.cls-1{fill:#ff3e3e;}</style></defs><g id="Layer_2" data-name="Layer 2"><g id="Layer_1-2" data-name="Layer 1"><path class="cls-1" d="M70.28,207.2a17.69,17.69,0,0,1-3.89,2.07,12.8,12.8,0,0,1-4.62.85H29.67a11.93,11.93,0,0,1-8-2.92,16,16,0,0,1-4.86-7.54L4.62,166.1a60.79,60.79,0,0,1-4-15.93Q0,143.24,0,135.22V41.34A14.79,14.79,0,0,1,.85,36,9.14,9.14,0,0,1,3.4,32.34L34.78,5.84a9.29,9.29,0,0,1,3.28-1.58,15.69,15.69,0,0,1,4.5-.61H80q5.83,0,8.51,2.67c1.78,1.79,2.68,4.62,2.68,8.51V78.31l13.61-11.43a11.47,11.47,0,0,1,4.75-2.43,24.36,24.36,0,0,1,6.2-.73h3.4V41.34a17.29,17.29,0,0,1,.73-5.35,7.34,7.34,0,0,1,2.19-3.4l.25-.25,31.61-26.5a9.44,9.44,0,0,1,3.16-1.58,15.44,15.44,0,0,1,4.62-.61H198c3.89,0,6.72.89,8.51,2.67s2.68,4.62,2.68,8.51v94.36q0,8-.61,15a61.25,61.25,0,0,1-4,15.93l-12.15,33.07a18,18,0,0,1-2,4.38,20.52,20.52,0,0,1-2.92,3.65l-31.37,26a10.23,10.23,0,0,1-3.16,2.19,9.74,9.74,0,0,1-3.89.73H116.73a16.21,16.21,0,0,1-8.51-2.19,11.72,11.72,0,0,1-5.11-6.81l-4.86-17.27ZM161.72,6.08q-4.62,0-6.68,2.07T153,14.83v89.5L138.86,73.69a12.27,12.27,0,0,0-5.1-5.84,16.34,16.34,0,0,0-7.79-1.7H115.76a16.27,16.27,0,0,0-7.78,1.7,12.24,12.24,0,0,0-5.11,5.84L88.76,104.33V14.83q0-4.61-2.06-6.68T80,6.08H42.56q-4.62,0-6.69,2.07T33.8,14.83v93.88q0,7.79.61,14.47a66.17,66.17,0,0,0,3.77,15.68l12.16,33.56a13.52,13.52,0,0,0,4,6.33A9.88,9.88,0,0,0,61,181.18h32.1a11.39,11.39,0,0,0,6.57-1.83,9.2,9.2,0,0,0,3.65-5.47l11.43-39.64a6.42,6.42,0,0,1,1.82-3.28,4,4,0,0,1,2.55-.85h2.19a4,4,0,0,1,2.56.85,6.49,6.49,0,0,1,1.82,3.28l11.19,39.64a8.25,8.25,0,0,0,4.13,5.6,14.7,14.7,0,0,0,7,1.7h32.35a8,8,0,0,0,6.2-2.55,17.41,17.41,0,0,0,3.53-6.21l12.16-33.07a67.35,67.35,0,0,0,3.77-15.69q.6-6.68.6-14.47V14.83q0-4.61-2.06-6.68T198,6.08Zm-38.18,91.2a8.38,8.38,0,0,1,6.2,2.31q2.31,2.31,5.72,9.12l22.37,44.75a5,5,0,0,0,3,2.91,13.45,13.45,0,0,0,3.53.49h1.21a5.25,5.25,0,0,0,3.65-1.58,5.81,5.81,0,0,0,2-3.53L177.29,124a65.63,65.63,0,0,0,1.09-11.92q.12-7.29.12-12.64V28h2.44V99.71q0,5.36-.13,12.65a64.71,64.71,0,0,1-1.09,11.91l-6.08,27.48a11,11,0,0,1-3,5.72,7.31,7.31,0,0,1-5,1.82h-1.7a12.91,12.91,0,0,1-4.5-.85,6.3,6.3,0,0,1-3.52-3.28l-22.38-45.24q-3.16-6.32-5.11-8.27a6.59,6.59,0,0,0-4.86-1.94h-6.08a6.61,6.61,0,0,0-4.86,1.94q-1.95,1.95-5.11,8.27L85.12,155.16a6.38,6.38,0,0,1-3.53,3.28,12.91,12.91,0,0,1-4.5.85h-1.7a7.31,7.31,0,0,1-5-1.82,11,11,0,0,1-3-5.72l-6.08-27.48a65.6,65.6,0,0,1-1.09-11.91q-.12-7.31-.12-12.65V28H62.5v71.5q0,5.34.12,12.64A64.62,64.62,0,0,0,63.72,124l6.08,27.72a5.69,5.69,0,0,0,1.94,3.53,5.25,5.25,0,0,0,3.65,1.58H76.6a13.45,13.45,0,0,0,3.53-.49,5,5,0,0,0,3-2.91l22.38-44.75q3.39-6.81,5.71-9.12a8.38,8.38,0,0,1,6.2-2.31Z"/><path class="cls-1" d="M367.22,198.45q-8.52,7.29-23.83,11.3t-39.4,4q-23.83,0-39-5t-23.83-13.25a43.84,43.84,0,0,1-11.92-19,75,75,0,0,1-3.29-22.13V78.8A66.13,66.13,0,0,1,229.09,58a35.17,35.17,0,0,1,11.43-16.41l31.61-26.27Q280.65,8,295.84,4t39.52-4q23.83,0,39,3.89t23.83,10.82A35.13,35.13,0,0,1,410,31.25a66.94,66.94,0,0,1,3.16,21v82.93A65,65,0,0,1,410,155.89a35.39,35.39,0,0,1-11.43,16.29Zm43.53-63.23V52.29A59.6,59.6,0,0,0,407.47,32,34.73,34.73,0,0,0,395.8,16.29q-8.4-6.55-23.11-10.21T335.36,2.43q-22.62,0-37.45,3.65T274.69,16.29A34.69,34.69,0,0,0,263,32a59.6,59.6,0,0,0-3.28,20.31v82.93a59.58,59.58,0,0,0,3.28,20.3,34,34,0,0,0,11.68,15.57q8.38,6.43,23.22,10.09t37.45,3.65q22.62,0,37.33-3.65t23.11-10.09a34,34,0,0,0,11.67-15.57A59.58,59.58,0,0,0,410.75,135.22Zm-26.5-5.6q0,14.59-10.46,23.71t-38.91,9.12q-28.45,0-38.67-9.12T286,129.62V57.88q0-14.6,10.21-23.71t38.67-9.12q28.46,0,38.91,9.12t10.46,23.71Zm-95.82,0q0,13.62,9.72,22T334.88,160q27,0,37-8.39t10-22V57.88q0-13.62-10-22t-37-8.39q-27,0-36.73,8.39t-9.72,22Zm26.5-3.16V61a10.27,10.27,0,0,1,3.65-7.9q3.65-3.28,16.78-3.29t16.78,3.29a10.27,10.27,0,0,1,3.65,7.9v65.42a10.52,10.52,0,0,1-3.65,8.15q-3.64,3.28-16.78,3.28t-16.78-3.28A10.52,10.52,0,0,1,314.93,126.46Zm2.44,0a8.93,8.93,0,0,0,1,4.26,7.34,7.34,0,0,0,3.65,3V87.55a8.93,8.93,0,0,0-1-4.26,6.36,6.36,0,0,0-3.64-2.79Z"/><path class="cls-1" d="M519.94,181.42l-31.61,26.27a8.36,8.36,0,0,1-3,1.7,13.36,13.36,0,0,1-4.5.73H443.34q-5.83,0-8.51-2.68t-2.68-8.51V41.34A14.79,14.79,0,0,1,433,36a9.06,9.06,0,0,1,2.56-3.65l31.37-26.5a9.37,9.37,0,0,1,3.28-1.58,15.74,15.74,0,0,1,4.5-.61h81q28.93,0,39.64,12t10.7,31V57.88a50.86,50.86,0,0,1-2.18,15.69,23.43,23.43,0,0,1-7.06,10.82h-.24A33,33,0,0,1,614.91,97q6.93,9.5,6.93,23.84v51.55a14.75,14.75,0,0,1-.85,5.35,9.07,9.07,0,0,1-2.55,3.65l-31.62,26.27a8.27,8.27,0,0,1-3,1.7,13.36,13.36,0,0,1-4.5.73H541.59q-5.83,0-8.51-2.68t-2.68-8.51V161.72a10.25,10.25,0,0,0-1.46-5.95c-1-1.38-2.76-2.07-5.35-2.07h-.24v18.72a15,15,0,0,1-.85,5.35A9,9,0,0,1,519.94,181.42Zm-7.78-.24q4.62,0,6.69-2.07t2.07-6.69V124.76h34q5.12,0,7.18,2.55c1.37,1.7,2.07,4.34,2.07,7.91v37.2c0,3.09.68,5.32,2.06,6.69s3.61,2.07,6.69,2.07h37.69q4.62,0,6.69-2.07t2.07-6.69V120.87q0-15.33-8.15-24.57T590,85.6a18.91,18.91,0,0,0,10.58-10.33q3-7.17,3-17.39V46.69q0-18-10.33-29.3T555.69,6.08h-81q-4.62,0-6.69,2.07T466,14.83V172.42q0,4.64,2.07,6.69t6.69,2.07Zm-17.51-21.89h-2.43V28h55.45q14.1,0,20.91,7.9t6.81,19.82V72.47q0,11.19-2.92,18.36t-11.67,9.85h2.67q14.84,0,22.14,6.69t7.29,19.33v32.59h-2.43V126.7q0-11.91-6.57-17.87t-20.43-6H494.65Zm53-128.89h-53v70.28h53q15.08,0,20.18-7.29T573,72.72v-17q0-11.17-6.2-18.24T547.67,30.4ZM520.92,49.85h18.24q6.32,0,8.51,3.29a14.36,14.36,0,0,1,2.19,8.15v8.26a14.36,14.36,0,0,1-2.19,8.15Q545.48,81,539.16,81H520.92Z"/><path class="cls-1" d="M725.19,181.42l-31.61,26.27a8.27,8.27,0,0,1-3,1.7,13.36,13.36,0,0,1-4.5.73H648.35c-3.9,0-6.73-.89-8.52-2.68s-2.67-4.62-2.67-8.51V41.34A14.79,14.79,0,0,1,638,36a9.14,9.14,0,0,1,2.55-3.65l31.38-26.5a9.37,9.37,0,0,1,3.28-1.58,15.74,15.74,0,0,1,4.5-.61h37.69q5.83,0,8.51,2.67c1.79,1.79,2.68,4.62,2.68,8.51V37c.49-.65,1-1.34,1.46-2.07a7.46,7.46,0,0,1,1.7-1.83l31.37-26.5a11,11,0,0,1,4.26-2.19,20.64,20.64,0,0,1,5.71-.73h37.46q6.08,0,8,3c1.3,2,1.13,4.82-.48,8.39l-23.35,53.5q13.13,1.71,20.91,11.19t7.78,24.07v68.58a14.75,14.75,0,0,1-.85,5.35,9.07,9.07,0,0,1-2.55,3.65l-31.61,26.27a8.36,8.36,0,0,1-3,1.7,13.36,13.36,0,0,1-4.5.73H743.43q-5.83,0-8.51-2.68t-2.67-8.51V151.51a6.9,6.9,0,0,0-1-3.89,3.73,3.73,0,0,0-2.67-1.7v26.5a15,15,0,0,1-.85,5.35A9,9,0,0,1,725.19,181.42Zm-7.78-.24q4.62,0,6.69-2.07t2.07-6.69V116.73h32.1q3.88,0,5.84,2.19a8.88,8.88,0,0,1,1.94,6.08v47.42q0,4.64,2.07,6.69t6.69,2.07h37.45q4.62,0,6.69-2.07t2.06-6.69V103.84q0-14.58-8.14-23.46T791.1,70.77l24.81-56.66c1.13-2.6,1.21-4.58.24-6s-2.84-2.07-5.59-2.07H773.1a14,14,0,0,0-7.53,1.82,12.24,12.24,0,0,0-4.63,6.21l-25,56.66h-9.73V14.83q0-4.61-2.07-6.68t-6.69-2.07H679.72q-4.62,0-6.69,2.07T671,14.83V172.42q0,4.64,2.07,6.69t6.69,2.07ZM699.9,159.29h-2.43V28h2.43V92.66h52.78l28-64.69h2.68l-28,64.69h10q14.83,0,22.13,5.59t7.3,18.24v42.8h-2.43v-42.8q0-11.67-6.81-16.54t-20.19-4.86H699.9Z"/><path class="cls-1" d="M849.71,210.12q-5.84,0-8.51-2.68t-2.68-8.51V170.48a14.75,14.75,0,0,1,.85-5.35,9,9,0,0,1,2.56-3.65l24.32-20.43q-12.9-3.88-20.31-13.25t-7.42-26.87V75.39a49,49,0,0,1,3.65-19.46,38.65,38.65,0,0,1,10.46-14.34l31.61-26.51a48.31,48.31,0,0,1,16.3-8.39,74,74,0,0,1,22.13-3h68.09q5.84,0,8.51,2.67c1.78,1.79,2.68,4.62,2.68,8.51v29a15,15,0,0,1-.85,5.35,9.13,9.13,0,0,1-2.56,3.64L976.65,71q15.33,3.4,24.69,12.77t9.36,29.06v25.54a48.82,48.82,0,0,1-3.65,19.45,37.5,37.5,0,0,1-10.7,14.35L965,198.45a48.71,48.71,0,0,1-16.54,8.63,73.42,73.42,0,0,1-21.88,3Zm108.22-28.94q23.34,0,36.84-11.07t13.5-31.73V112.84q0-20.43-10.46-29.18T970.33,72.47L934.1,67.61a6.49,6.49,0,0,1-4.87-2.43,8.49,8.49,0,0,1-1.7-5.35,8,8,0,0,1,1.7-5.23,5.94,5.94,0,0,1,4.87-2.07h56.66q4.62,0,6.69-2.07t2.06-6.68V14.83q0-4.61-2.06-6.68t-6.69-2.07H922.67q-23.59,0-37,11.06T872.32,48.88V74.42q0,20.43,10.34,29.18T910,114.79l36.48,5.1a6.5,6.5,0,0,1,4.74,2.19q1.57,2,1.58,6.08a8,8,0,0,1-1.58,5,5.6,5.6,0,0,1-4.74,2.07H881.08q-4.62,0-6.69,2.06T872.32,144v28.45q0,4.64,2.07,6.69t6.69,2.07ZM977.63,28V30.4h-54q-10.21,0-16.3,5.59a18.35,18.35,0,0,0-6.07,14.11V70q0,8.52,3.4,11.92a16.22,16.22,0,0,0,9,4.37L965,96.79a22.49,22.49,0,0,1,12,6.32q4.74,4.88,4.74,17.51v14.11a23.26,23.26,0,0,1-7.29,17.63q-7.31,6.93-19.7,6.93H894.21v-2.43h60.56q11.18,0,17.87-6.2a20.75,20.75,0,0,0,6.69-15.93V120.62q0-11.43-4-15.68a20.32,20.32,0,0,0-10.83-5.72L913.18,88.77a20.27,20.27,0,0,1-10.33-5q-4-3.77-4-13.74V50.1a20.57,20.57,0,0,1,6.81-15.93q6.81-6.21,18-6.2Z"/></g></g></svg>